<svg xmlns="http://www.w3.org/2000/svg" viewBox="0 0 424.88 107"><defs><style>.cls-1{fill:#f97316;}.cls-2{font-size:72px;fill:#38322e;font-family:Lora-Bold, Lora;font-weight:700;}</style></defs><g id="Layer_2" data-name="Layer 2"><g id="Layer_1-2" data-name="Layer 1"><path class="cls-1" d="M90.83,28.7a14.35,14.35,0,1,0-11.28-5.48L63.17,39.6a16.15,16.15,0,0,0-21.89,1.51L19.43,24.87a10.39,10.39,0,0,0,1.12-4.68,10.27,10.27,0,1,0-3.16,7.41L39.21,43.81a16.15,16.15,0,0,0,1.23,18.53L24.23,78.55A14.42,14.42,0,1,0,26.64,81l16.2-16.2A16.07,16.07,0,0,0,53,68.38h.13l1.17,10.35a14.34,14.34,0,1,0,3.48-.43h-.1L56.56,68a16.16,16.16,0,0,0,8.5-5l14.83,11a10.27,10.27,0,1,0,2-2.75l-14.84-11A16.2,16.2,0,0,0,65.59,42L82,25.63A14.3,14.3,0,0,0,90.83,28.7Z"/><text class="cls-2" transform="translate(124.78 80.25)">Pubnode</text></g></g></svg>