<svg xmlns="http://www.w3.org/2000/svg" viewBox="0 0 297.46 302.62"><defs><style>.cls-1{fill:#f97316;}</style></defs><g id="Layer_2" data-name="Layer 2"><g id="Layer_1-2" data-name="Layer 1"><path class="cls-1" d="M256.88,81.17A40.61,40.61,0,1,0,225,65.68L178.67,112a45.72,45.72,0,0,0-61.93,4.26L54.94,70.33a29.13,29.13,0,1,0-5.75,7.72l61.7,45.86a45.74,45.74,0,0,0,3.47,52.39L68.53,222.14a40.62,40.62,0,1,0,6.83,6.79l45.79-45.8A45.54,45.54,0,0,0,150,193.39h.37l3.3,29.27a40.62,40.62,0,1,0,9.84-1.2h-.28L160,192.29a45.68,45.68,0,0,0,24.05-14l41.94,31.18a29.13,29.13,0,1,0,5.69-7.77l-42-31.2a45.73,45.73,0,0,0-4.15-51.67l46.3-46.3A40.44,40.44,0,0,0,256.88,81.17Z"/></g></g></svg>